<svg width="256" height="256" viewBox="0 0 256 256" fill="none" xmlns="http://www.w3.org/2000/svg">
  <circle cx="128" cy="128" r="120" fill="#f5f5f5" stroke="#222" stroke-width="8"/>
  <path d="M64 128c0-35 29-64 64-64s64 29 64 64-29 64-64 64-64-29-64-64z" fill="#fff" stroke="#222" stroke-width="6"/>
  <path d="M88 128c0-22 18-40 40-40s40 18 40 40-18 40-40 40-40-18-40-40z" fill="#e0e0e0" stroke="#222" stroke-width="4"/>
  <path d="M128 128L128 88" stroke="#222" stroke-width="6" stroke-linecap="round"/>
  <path d="M128 128L156 140" stroke="#222" stroke-width="6" stroke-linecap="round"/>
  <path d="M56 128c0-40 32-72 72-72" stroke="#888" stroke-width="4" stroke-linecap="round"/>
  <path d="M200 128c0-40-32-72-72-72" stroke="#888" stroke-width="4" stroke-linecap="round"/>
  <ellipse cx="72" cy="104" rx="10" ry="16" fill="#fff" stroke="#222" stroke-width="3"/>
  <ellipse cx="184" cy="104" rx="10" ry="16" fill="#fff" stroke="#222" stroke-width="3"/>
  <circle cx="72" cy="108" r="3" fill="#222"/>
  <circle cx="184" cy="108" r="3" fill="#222"/>
  <path d="M60 144c4 8 12 16 24 16" stroke="#222" stroke-width="3" stroke-linecap="round"/>
  <path d="M196 144c-4 8-12 16-24 16" stroke="#222" stroke-width="3" stroke-linecap="round"/>
</svg>
